<svg xmlns="http://www.w3.org/2000/svg" viewBox="0 0 301.9 107"><title>pb_logo</title><path d="M224.1,423.6h0a99.14,99.14,0,0,1,42.2-19.1,53.5,53.5,0,0,0-84.8-33.6,86.77,86.77,0,0,1,42.6,52.7" transform="translate(-160.2 -360.2)" style="fill:#4392ce"/><path d="M179.1,372.8A53.49,53.49,0,0,0,192,462.5a102.94,102.94,0,0,0-12.9-89.7" transform="translate(-160.2 -360.2)" style="fill:#4392ce"/><path d="M194.4,463.6a53.42,53.42,0,0,0,72.7-49.9,40.77,40.77,0,0,0-.4-6.1,154.89,154.89,0,0,0-72.3,56" transform="translate(-160.2 -360.2)" style="fill:#74b443"/><path d="M285.4,379.7h8.2a18.7,18.7,0,0,1,3.4.3,6.86,6.86,0,0,1,2.9,1.2,6.09,6.09,0,0,1,2,2.2,6.87,6.87,0,0,1,.7,3.4,7.81,7.81,0,0,1-.8,3.7,5.56,5.56,0,0,1-2.1,2.2,10.38,10.38,0,0,1-3.1,1.1,22.18,22.18,0,0,1-3.7.3h-3.1v10.2h-4.4Zm7,10.6a12.1,12.1,0,0,0,1.9-.1,5.85,5.85,0,0,0,1.9-.4,3.59,3.59,0,0,0,1.4-1,2.85,2.85,0,0,0,.5-1.9,3,3,0,0,0-.5-1.8,2.34,2.34,0,0,0-1.2-1,8.45,8.45,0,0,0-1.7-.5,10.87,10.87,0,0,0-1.8-.1h-3.1v6.9h2.6Z" transform="translate(-160.2 -360.2)" style="fill:#005aa7"/><path d="M302.6,395.9a8.57,8.57,0,0,1,.7-3.6,9.23,9.23,0,0,1,1.9-2.8,9.47,9.47,0,0,1,2.9-1.8,10.51,10.51,0,0,1,7,0,7.89,7.89,0,0,1,2.9,1.8,7.74,7.74,0,0,1,1.9,2.8,9.61,9.61,0,0,1,0,7.2,9.23,9.23,0,0,1-1.9,2.8,9.47,9.47,0,0,1-2.9,1.8,10.51,10.51,0,0,1-7,0,7.89,7.89,0,0,1-2.9-1.8,7.74,7.74,0,0,1-1.9-2.8,8.57,8.57,0,0,1-.7-3.6m4.1,0a6.28,6.28,0,0,0,.3,1.9,3.91,3.91,0,0,0,1,1.6,4.18,4.18,0,0,0,1.5,1.1,5.2,5.2,0,0,0,4,0,4.18,4.18,0,0,0,1.5-1.1,5.37,5.37,0,0,0,1-1.6,5.82,5.82,0,0,0,.3-1.9,6.28,6.28,0,0,0-.3-1.9,3.91,3.91,0,0,0-1-1.6,4.18,4.18,0,0,0-1.5-1.1,5.2,5.2,0,0,0-4,0,4.18,4.18,0,0,0-1.5,1.1,5.37,5.37,0,0,0-1,1.6,5.82,5.82,0,0,0-.3,1.9" transform="translate(-160.2 -360.2)" style="fill:#005aa7"/><path d="M322.7,381.9a2.41,2.41,0,0,1,.7-1.7,2.62,2.62,0,1,1,3.8,3.6,2.64,2.64,0,0,1-1.9.7,2.49,2.49,0,0,1-1.9-.7,3.41,3.41,0,0,1-.7-1.9m.6,5.7h4.2v16.6h-4.2Z" transform="translate(-160.2 -360.2)" style="fill:#005aa7"/><path d="M332,387.6h4v2.7h.1a6.25,6.25,0,0,1,1.8-2.2,5.39,5.39,0,0,1,3.3-.9,6.09,6.09,0,0,1,2.8.6,5.75,5.75,0,0,1,1.9,1.5,5.12,5.12,0,0,1,1,2.1,10.07,10.07,0,0,1,.3,2.5v10.5H343V396a7.57,7.57,0,0,0-.1-1.5,4.19,4.19,0,0,0-.4-1.6,2.73,2.73,0,0,0-.9-1.2,2.86,2.86,0,0,0-1.7-.5,4,4,0,0,0-1.7.3,2.73,2.73,0,0,0-1.2.9,5.39,5.39,0,0,0-.7,1.3,7.77,7.77,0,0,0-.2,1.6v9.1H332Z" transform="translate(-160.2 -360.2)" style="fill:#005aa7"/><path d="M349.1,391.1v-3.5h3.4v-4.8h4.2v4.8h4.6v3.5h-4.6v7.3a3.94,3.94,0,0,0,.5,2c.3.5.9.7,1.9.7a4.87,4.87,0,0,0,1.2-.1,2.32,2.32,0,0,0,1-.4v3.5a3.77,3.77,0,0,1-1.6.4,10.28,10.28,0,0,1-1.7.1,7,7,0,0,1-2.7-.4,3.37,3.37,0,0,1-1.7-1.1,3.67,3.67,0,0,1-.8-1.9,10.17,10.17,0,0,1-.2-2.6V391h-3.5Z" transform="translate(-160.2 -360.2)" style="fill:#005aa7"/><path d="M373.3,379.7h9.6a12.41,12.41,0,0,1,2.7.3,6.59,6.59,0,0,1,2.4,1.1,5.19,5.19,0,0,1,1.7,1.9,6.1,6.1,0,0,1,.7,2.8,4.87,4.87,0,0,1-1.2,3.4,6.53,6.53,0,0,1-3.1,1.9v.1a6.46,6.46,0,0,1,2.1.6,5.78,5.78,0,0,1,2.8,3.1,5.38,5.38,0,0,1,.4,2.2,6.44,6.44,0,0,1-.8,3.3,5.3,5.3,0,0,1-2.1,2.1,13.43,13.43,0,0,1-3,1.2,19.53,19.53,0,0,1-3.4.3h-8.8V379.7Zm4.4,9.9h4a5.94,5.94,0,0,0,3.3-.8,3,3,0,0,0,0-4.6,6.61,6.61,0,0,0-3.6-.8h-3.6v6.2Zm0,10.9h4a11.48,11.48,0,0,0,1.8-.1,6.07,6.07,0,0,0,1.8-.5,3.48,3.48,0,0,0,1.3-1.1,3.56,3.56,0,0,0,.5-1.9,2.79,2.79,0,0,0-1.3-2.7,7.84,7.84,0,0,0-3.9-.8h-4.2v7.1Z" transform="translate(-160.2 -360.2)" style="fill:#005aa7"/><rect x="234.6" y="17.8" width="4.2" height="26.2" style="fill:#005aa7"/><path d="M418.4,404.2h-3.9v-2.7h-.1a6.25,6.25,0,0,1-1.8,2.2,5.39,5.39,0,0,1-3.3.9,7.39,7.39,0,0,1-2.8-.5,4.71,4.71,0,0,1-1.9-1.5,5.12,5.12,0,0,1-1-2.1,10.07,10.07,0,0,1-.3-2.5V387.5h4.2v8.4a7.57,7.57,0,0,0,.1,1.5,4.19,4.19,0,0,0,.4,1.6,2.73,2.73,0,0,0,.9,1.2,2.86,2.86,0,0,0,1.7.5,4.84,4.84,0,0,0,1.8-.3,2.73,2.73,0,0,0,1.2-.9,5.39,5.39,0,0,0,.7-1.3,7.77,7.77,0,0,0,.2-1.6v-9.1h4.2v16.7Z" transform="translate(-160.2 -360.2)" style="fill:#005aa7"/><path d="M425.8,397.3a4,4,0,0,0,1.5,2.9,4.36,4.36,0,0,0,3,1,5.26,5.26,0,0,0,2.6-.6,9.5,9.5,0,0,0,1.9-1.6l3,2.3a8.84,8.84,0,0,1-3.3,2.6,10,10,0,0,1-3.8.8,10.3,10.3,0,0,1-3.5-.6,7.89,7.89,0,0,1-2.9-1.8,9.23,9.23,0,0,1-1.9-2.8,9.61,9.61,0,0,1,0-7.2,9.23,9.23,0,0,1,1.9-2.8,7.89,7.89,0,0,1,2.9-1.8,10.3,10.3,0,0,1,3.5-.6,8.29,8.29,0,0,1,3.2.6,6.42,6.42,0,0,1,2.5,1.8,8.54,8.54,0,0,1,1.6,2.8,11.42,11.42,0,0,1,.6,3.9v1.1Zm8.5-3.1a4,4,0,0,0-1.1-2.9,4.33,4.33,0,0,0-3.1-1.1,4.43,4.43,0,0,0-3,1.1,4.61,4.61,0,0,0-1.3,2.9Z" transform="translate(-160.2 -360.2)" style="fill:#005aa7"/><path d="M302.5,431.3a10.7,10.7,0,0,1-1.4,1.6,12.74,12.74,0,0,1-1.9,1.3,9.17,9.17,0,0,1-2.3.9,11.15,11.15,0,0,1-2.7.3,12.29,12.29,0,0,1-4.7-.9,10.53,10.53,0,0,1-3.7-2.5,11.52,11.52,0,0,1-2.5-3.7,12.72,12.72,0,0,1,0-9.4,11.75,11.75,0,0,1,6.2-6.2,11.93,11.93,0,0,1,4.7-.9,12.49,12.49,0,0,1,4.2.8,8.59,8.59,0,0,1,3.6,2.7l-2,1.5a3.33,3.33,0,0,0-1-1.1,7.1,7.1,0,0,0-1.4-1,8.65,8.65,0,0,0-1.7-.7,5.66,5.66,0,0,0-1.8-.3,10.06,10.06,0,0,0-3.9.8,8.63,8.63,0,0,0-4.7,5.2,11.71,11.71,0,0,0,0,7.4,8.63,8.63,0,0,0,4.7,5.2,9.35,9.35,0,0,0,3.9.8,11,11,0,0,0,1.8-.2,8.45,8.45,0,0,0,1.7-.5,8.64,8.64,0,0,0,1.6-1,7.31,7.31,0,0,0,1.4-1.6Z" transform="translate(-160.2 -360.2)" style="fill:#005aa7"/><path d="M319.3,427.4a7.79,7.79,0,0,1-.6,3.1,6.92,6.92,0,0,1-4.1,4.1,8.29,8.29,0,0,1-3.2.6,8.66,8.66,0,0,1-3.2-.6,6.92,6.92,0,0,1-4.1-4.1,8.15,8.15,0,0,1-.6-3.1,7.79,7.79,0,0,1,.6-3.1,6.92,6.92,0,0,1,4.1-4.1,8.83,8.83,0,0,1,6.4,0,6.92,6.92,0,0,1,4.1,4.1,7.79,7.79,0,0,1,.6,3.1m-2.3,0a5.87,5.87,0,0,0-.4-2.3,7.24,7.24,0,0,0-1.1-1.9,8.32,8.32,0,0,0-1.8-1.3,5.93,5.93,0,0,0-2.3-.5,5.56,5.56,0,0,0-2.3.5,4.63,4.63,0,0,0-1.8,1.3,5.93,5.93,0,0,0-1.1,1.9,6.81,6.81,0,0,0,0,4.6,7.24,7.24,0,0,0,1.1,1.9,8.32,8.32,0,0,0,1.8,1.3,5.93,5.93,0,0,0,2.3.5,5.56,5.56,0,0,0,2.3-.5,4.63,4.63,0,0,0,1.8-1.3,4.53,4.53,0,0,0,1.1-1.9,8.52,8.52,0,0,0,.4-2.3" transform="translate(-160.2 -360.2)" style="fill:#005aa7"/><path d="M324.2,420c0,.4.1.8.1,1.2v1.2h.1a3.13,3.13,0,0,1,.9-1.1l1.2-.9c.4-.2.9-.4,1.4-.6a7.72,7.72,0,0,1,1.5-.2,5.38,5.38,0,0,1,4.2,1.5,6.17,6.17,0,0,1,1.4,4.3v9.4h-2.1v-8.2a6.67,6.67,0,0,0-.9-3.8c-.6-.9-1.6-1.3-3.2-1.3a4.4,4.4,0,0,0-.9.1,3.4,3.4,0,0,0-1.5.7A6.07,6.07,0,0,0,325,424a7,7,0,0,0-.6,3.2v7.6h-2.1V423.2a8.64,8.64,0,0,0-.1-1.5c0-.6-.1-1.2-.1-1.8h2.1Z" transform="translate(-160.2 -360.2)" style="fill:#005aa7"/><path d="M347,423.5a3.74,3.74,0,0,0-1.3-1.5,3,3,0,0,0-1.9-.5,4.1,4.1,0,0,0-1.1.1,3,3,0,0,0-1,.4,2.34,2.34,0,0,0-.7.7,1.69,1.69,0,0,0-.3,1,1.58,1.58,0,0,0,.7,1.5,6.81,6.81,0,0,0,2.2.8l2.1.5a5.1,5.1,0,0,1,2.6,1.4,3.62,3.62,0,0,1,1,2.7,4.65,4.65,0,0,1-.5,2.1,3.53,3.53,0,0,1-1.3,1.4,5.45,5.45,0,0,1-1.9.8,7.61,7.61,0,0,1-2.1.3,8.66,8.66,0,0,1-3.2-.6,5.81,5.81,0,0,1-2.5-2.2l1.8-1.2a4.89,4.89,0,0,0,1.6,1.6,4.14,4.14,0,0,0,2.3.6,6.15,6.15,0,0,0,1.3-.1,3.58,3.58,0,0,0,1.1-.4,3,3,0,0,0,.8-.8,2,2,0,0,0,.3-1.1,1.82,1.82,0,0,0-.8-1.6,9.26,9.26,0,0,0-2-.8l-2-.5c-.3-.1-.6-.2-1-.3a4.15,4.15,0,0,1-1.3-.7,4.26,4.26,0,0,1-1.1-1.2,3.42,3.42,0,0,1-.4-1.8,4.23,4.23,0,0,1,.5-2,4.07,4.07,0,0,1,1.2-1.4,4.94,4.94,0,0,1,1.8-.8,6.93,6.93,0,0,1,2-.3,7.17,7.17,0,0,1,2.9.6,4.29,4.29,0,0,1,2.1,2.1Z" transform="translate(-160.2 -360.2)" style="fill:#005aa7"/><path d="M353.9,428a8,8,0,0,0,.5,2.1,5.23,5.23,0,0,0,1.2,1.7,3.86,3.86,0,0,0,1.7,1.1,4.64,4.64,0,0,0,2.1.4,5.47,5.47,0,0,0,2.9-.8,6.56,6.56,0,0,0,1.9-1.8l1.6,1.3a9,9,0,0,1-2.9,2.4,8.71,8.71,0,0,1-6.6.1,6.74,6.74,0,0,1-2.4-1.6,7.16,7.16,0,0,1-1.6-2.5,8.15,8.15,0,0,1-.6-3.1,7.79,7.79,0,0,1,.6-3.1,7.16,7.16,0,0,1,1.6-2.5,7.76,7.76,0,0,1,2.4-1.6,7.8,7.8,0,0,1,6,0,6,6,0,0,1,2.2,1.6,6.34,6.34,0,0,1,1.4,2.4,9.29,9.29,0,0,1,.5,2.9v1Zm10.1-1.7a4.38,4.38,0,0,0-1.3-3.4,4.55,4.55,0,0,0-3.6-1.3,4.77,4.77,0,0,0-2,.4,6.19,6.19,0,0,0-1.7,1.1,3.88,3.88,0,0,0-1.1,1.5,3.92,3.92,0,0,0-.4,1.8H364Z" transform="translate(-160.2 -360.2)" style="fill:#005aa7"/><path d="M369.9,424.6v-2c0-.7-.1-1.6-.1-2.6h2.1v2.8h.1l.6-1.2a4.74,4.74,0,0,1,1-1,4.58,4.58,0,0,1,1.4-.7,4.84,4.84,0,0,1,1.8-.3,7.77,7.77,0,0,1,1.6.2l-.4,2.1a3.73,3.73,0,0,0-1.2-.2,4.65,4.65,0,0,0-2.1.5,3.33,3.33,0,0,0-1.4,1.2,3.68,3.68,0,0,0-.8,1.5,4.53,4.53,0,0,0-.3,1.6v8.4h-2.1V424.6Z" transform="translate(-160.2 -360.2)" style="fill:#005aa7"/><polygon points="228 74.6 225.7 74.6 219.6 59.8 222.1 59.8 226.9 72.3 226.9 72.3 231.7 59.8 234 59.8 228 74.6" style="fill:#005aa7"/><path d="M405.9,425.7v-.4c0-2.6-1.3-3.8-3.8-3.8a6.81,6.81,0,0,0-4.5,1.7l-1.3-1.5a8.59,8.59,0,0,1,6.3-2.2,7.61,7.61,0,0,1,2.1.3,3.67,3.67,0,0,1,1.7,1,4.81,4.81,0,0,1,1.2,1.6,5.75,5.75,0,0,1,.4,2.4v6.6a10.87,10.87,0,0,0,.1,1.8c.1.6.1,1.1.2,1.5h-2a4.87,4.87,0,0,1-.1-1.2v-1.2H406a4.92,4.92,0,0,1-2.2,2.1,7.09,7.09,0,0,1-3.1.7,5.82,5.82,0,0,1-1.9-.3,6,6,0,0,1-1.6-.8,3,3,0,0,1-1.1-1.4,3.81,3.81,0,0,1-.4-1.9,3.93,3.93,0,0,1,.9-2.8,5.13,5.13,0,0,1,2.3-1.5,14.5,14.5,0,0,1,3-.6c1.1-.1,2-.1,2.9-.1Zm-1.1,1.7a15.56,15.56,0,0,0-2,.1,15.72,15.72,0,0,0-2.3.4,5.57,5.57,0,0,0-1.9.9,2.14,2.14,0,0,0-.8,1.7,2.77,2.77,0,0,0,.3,1.3,3.45,3.45,0,0,0,.8.9,3.7,3.7,0,0,0,1.1.5,5.28,5.28,0,0,0,1.3.1,4.21,4.21,0,0,0,2-.4,5,5,0,0,0,1.4-1,2.75,2.75,0,0,0,.8-1.5,5.82,5.82,0,0,0,.3-1.9v-1.1Z" transform="translate(-160.2 -360.2)" style="fill:#005aa7"/><path d="M420.2,421.9h-4.3v8.8a3.92,3.92,0,0,0,.2,1.3,2.93,2.93,0,0,0,.4.8,1.61,1.61,0,0,0,.7.4,2.77,2.77,0,0,0,.9.1,4.25,4.25,0,0,0,1.1-.2,3,3,0,0,0,1-.4l.1,1.9a6.1,6.1,0,0,1-2.8.5,6.88,6.88,0,0,1-1.3-.2,3.38,3.38,0,0,1-1.2-.6,2.73,2.73,0,0,1-.9-1.2,5.44,5.44,0,0,1-.4-2v-9.4h-3.1V420h3.1v-4.2h2.1V420h4.3v1.9Z" transform="translate(-160.2 -360.2)" style="fill:#005aa7"/><path d="M427.4,414.2a1.61,1.61,0,0,1-.5,1.1,1.43,1.43,0,0,1-1,.4,1.67,1.67,0,0,1-1.1-.4,1.46,1.46,0,0,1,0-2.2,1.5,1.5,0,0,1,1.1-.4,1.28,1.28,0,0,1,1,.4,1.61,1.61,0,0,1,.5,1.1m-.5,20.6h-2.1V420h2.1Z" transform="translate(-160.2 -360.2)" style="fill:#005aa7"/><path d="M446.3,427.4a7.79,7.79,0,0,1-.6,3.1,6.92,6.92,0,0,1-4.1,4.1,8.29,8.29,0,0,1-3.2.6,8.66,8.66,0,0,1-3.2-.6,6.92,6.92,0,0,1-4.1-4.1,8.15,8.15,0,0,1-.6-3.1,7.79,7.79,0,0,1,.6-3.1,6.92,6.92,0,0,1,4.1-4.1,8.83,8.83,0,0,1,6.4,0,6.92,6.92,0,0,1,4.1,4.1,7.79,7.79,0,0,1,.6,3.1m-2.2,0a5.87,5.87,0,0,0-.4-2.3,7.24,7.24,0,0,0-1.1-1.9,8.32,8.32,0,0,0-1.8-1.3,5.93,5.93,0,0,0-2.3-.5,5.56,5.56,0,0,0-2.3.5,3.71,3.71,0,0,0-1.7,1.3,5.93,5.93,0,0,0-1.1,1.9,6.81,6.81,0,0,0,0,4.6,7.24,7.24,0,0,0,1.1,1.9,10.92,10.92,0,0,0,1.7,1.3,5.93,5.93,0,0,0,2.3.5,5.56,5.56,0,0,0,2.3-.5,4.63,4.63,0,0,0,1.8-1.3,4.53,4.53,0,0,0,1.1-1.9,8.52,8.52,0,0,0,.4-2.3" transform="translate(-160.2 -360.2)" style="fill:#005aa7"/><path d="M451.3,420c0,.4.1.8.1,1.2v1.2h.1a3.13,3.13,0,0,1,.9-1.1l1.2-.9c.4-.2.9-.4,1.4-.6a7.72,7.72,0,0,1,1.5-.2,5.38,5.38,0,0,1,4.2,1.5,6.17,6.17,0,0,1,1.4,4.3v9.4H460v-8.2a6.67,6.67,0,0,0-.9-3.8c-.6-.9-1.6-1.3-3.2-1.3a4.4,4.4,0,0,0-.9.1,3.4,3.4,0,0,0-1.5.7,6.07,6.07,0,0,0-1.4,1.7,7,7,0,0,0-.6,3.2v7.6h-2.1V423.2a8.64,8.64,0,0,0-.1-1.5c0-.6-.1-1.2-.1-1.8h2.1Z" transform="translate(-160.2 -360.2)" style="fill:#005aa7"/><path d="M296.1,446.7a4.84,4.84,0,0,0-4.4-2.2,8.81,8.81,0,0,0-1.7.2,5.23,5.23,0,0,0-1.5.7,2.85,2.85,0,0,0-1.1,1.3,3.42,3.42,0,0,0-.4,1.8,3.24,3.24,0,0,0,.9,2.4,7.71,7.71,0,0,0,2.1,1.4,18.25,18.25,0,0,0,2.8,1,23.29,23.29,0,0,1,2.8,1.1,6.39,6.39,0,0,1,2.1,1.9,5.27,5.27,0,0,1,.9,3.2,6,6,0,0,1-.6,2.7,5.51,5.51,0,0,1-1.7,2,7,7,0,0,1-2.4,1.3,8.42,8.42,0,0,1-2.7.4,10.06,10.06,0,0,1-3.9-.8,7.86,7.86,0,0,1-3.2-2.6l2.1-1.5a6.36,6.36,0,0,0,2,2,6.17,6.17,0,0,0,3.1.7,5.08,5.08,0,0,0,1.7-.3,3.61,3.61,0,0,0,1.5-.8,4.49,4.49,0,0,0,1.1-1.3,3.29,3.29,0,0,0,.4-1.7,4.23,4.23,0,0,0-.5-2,4,4,0,0,0-1.3-1.3,10.08,10.08,0,0,0-1.8-.9c-.7-.2-1.4-.5-2.1-.7a18,18,0,0,1-2.1-.8,7.84,7.84,0,0,1-1.8-1.1,5.5,5.5,0,0,1-1.3-1.7,6.69,6.69,0,0,1-.5-2.6,6.09,6.09,0,0,1,.6-2.8,5.51,5.51,0,0,1,1.7-2,10.08,10.08,0,0,1,2.3-1.2,8.42,8.42,0,0,1,2.7-.4,9.89,9.89,0,0,1,3.5.6,7.92,7.92,0,0,1,2.9,2.1Z" transform="translate(-160.2 -360.2)" style="fill:#005aa7"/><path d="M312.1,454.1a6.73,6.73,0,0,0-1.5-1.4,4,4,0,0,0-2.2-.6,5.56,5.56,0,0,0-2.3.4,5.67,5.67,0,0,0-1.8,1.2,4.53,4.53,0,0,0-1.1,1.9,6.05,6.05,0,0,0-.4,2.4,6.37,6.37,0,0,0,.4,2.4,5.93,5.93,0,0,0,1.1,1.9,5.67,5.67,0,0,0,1.8,1.2,5.87,5.87,0,0,0,2.3.4,4,4,0,0,0,2.2-.6,5,5,0,0,0,1.5-1.4l1.7,1.3a6.42,6.42,0,0,1-2.5,1.9,9.47,9.47,0,0,1-2.9.7,8.81,8.81,0,0,1-3.3-.6,6.92,6.92,0,0,1-4.1-4.1,8.08,8.08,0,0,1-.5-3.1,10.07,10.07,0,0,1,.5-3.1,6.92,6.92,0,0,1,4.1-4.1,8.81,8.81,0,0,1,3.3-.6,5.92,5.92,0,0,1,2.9.7,7.56,7.56,0,0,1,2.5,1.9Z" transform="translate(-160.2 -360.2)" style="fill:#005aa7"/><path d="M319.5,444.9a1.61,1.61,0,0,1-.5,1.1,1.43,1.43,0,0,1-1,.4,1.28,1.28,0,0,1-1-.4,1.46,1.46,0,0,1,0-2.2,1.43,1.43,0,0,1,1-.4,1.28,1.28,0,0,1,1,.4,1.17,1.17,0,0,1,.5,1.1m-.5,20.6h-2.1V450.6H319Z" transform="translate(-160.2 -360.2)" style="fill:#005aa7"/><path d="M324.9,458.6a8,8,0,0,0,.5,2.1,5.23,5.23,0,0,0,1.2,1.7,3.86,3.86,0,0,0,1.7,1.1,4.64,4.64,0,0,0,2.1.4,5.47,5.47,0,0,0,2.9-.8,6.56,6.56,0,0,0,1.9-1.8l1.6,1.3a9,9,0,0,1-2.9,2.4,8,8,0,0,1-3.4.7,8.15,8.15,0,0,1-3.1-.6,6.74,6.74,0,0,1-2.4-1.6,7.16,7.16,0,0,1-1.6-2.5,8.15,8.15,0,0,1-.6-3.1,7.79,7.79,0,0,1,.6-3.1,7.16,7.16,0,0,1,1.6-2.5,7.76,7.76,0,0,1,2.4-1.6,7.8,7.8,0,0,1,6,0,6,6,0,0,1,2.2,1.6,7.22,7.22,0,0,1,1.4,2.4,9.29,9.29,0,0,1,.5,2.9v1Zm10.1-1.7a4.75,4.75,0,0,0-1.3-3.5,4.55,4.55,0,0,0-3.6-1.3,4.77,4.77,0,0,0-2,.4,6.19,6.19,0,0,0-1.7,1.1,3.88,3.88,0,0,0-1.1,1.5,3.92,3.92,0,0,0-.4,1.8Z" transform="translate(-160.2 -360.2)" style="fill:#005aa7"/><path d="M343,450.6c0,.4.1.8.1,1.2V453h.1a3.13,3.13,0,0,1,.9-1.1l1.2-.9c.4-.2.9-.4,1.4-.6a7.72,7.72,0,0,1,1.5-.2,5.38,5.38,0,0,1,4.2,1.5,6.17,6.17,0,0,1,1.4,4.3v9.4h-2.1v-8.2a6.67,6.67,0,0,0-.9-3.8c-.6-.9-1.6-1.3-3.2-1.3a4.4,4.4,0,0,0-.9.1,3.4,3.4,0,0,0-1.5.7,6.07,6.07,0,0,0-1.4,1.7,7,7,0,0,0-.6,3.2v7.6H341V452.3c0-.6-.1-1.2-.1-1.8H343Z" transform="translate(-160.2 -360.2)" style="fill:#005aa7"/><path d="M368.8,454.1a6.73,6.73,0,0,0-1.5-1.4,4,4,0,0,0-2.2-.6,5.56,5.56,0,0,0-2.3.4,5.67,5.67,0,0,0-1.8,1.2,4.53,4.53,0,0,0-1.1,1.9,6.05,6.05,0,0,0-.4,2.4,6.37,6.37,0,0,0,.4,2.4,5.93,5.93,0,0,0,1.1,1.9,5.67,5.67,0,0,0,1.8,1.2,5.87,5.87,0,0,0,2.3.4,4,4,0,0,0,2.2-.6,5,5,0,0,0,1.5-1.4l1.7,1.3a6.42,6.42,0,0,1-2.5,1.9,9.47,9.47,0,0,1-2.9.7,8.81,8.81,0,0,1-3.3-.6,6.92,6.92,0,0,1-4.1-4.1,8.08,8.08,0,0,1-.5-3.1,10.07,10.07,0,0,1,.5-3.1,6.92,6.92,0,0,1,4.1-4.1,8.81,8.81,0,0,1,3.3-.6,5.92,5.92,0,0,1,2.9.7,7.56,7.56,0,0,1,2.5,1.9Z" transform="translate(-160.2 -360.2)" style="fill:#005aa7"/><path d="M374.5,458.6a8,8,0,0,0,.5,2.1,5.23,5.23,0,0,0,1.2,1.7,3.86,3.86,0,0,0,1.7,1.1,4.64,4.64,0,0,0,2.1.4,5.47,5.47,0,0,0,2.9-.8,6.56,6.56,0,0,0,1.9-1.8l1.6,1.3a9,9,0,0,1-2.9,2.4,8,8,0,0,1-3.4.7,8.15,8.15,0,0,1-3.1-.6,6.74,6.74,0,0,1-2.4-1.6A7.16,7.16,0,0,1,373,461a8.15,8.15,0,0,1-.6-3.1,7.79,7.79,0,0,1,.6-3.1,7.16,7.16,0,0,1,1.6-2.5,7.76,7.76,0,0,1,2.4-1.6,7.8,7.8,0,0,1,6,0,6,6,0,0,1,2.2,1.6,7.22,7.22,0,0,1,1.4,2.4,9.29,9.29,0,0,1,.5,2.9v1Zm10.1-1.7a4.75,4.75,0,0,0-1.3-3.5,4.55,4.55,0,0,0-3.6-1.3,4.77,4.77,0,0,0-2,.4,6.19,6.19,0,0,0-1.7,1.1,3.88,3.88,0,0,0-1.1,1.5,3.92,3.92,0,0,0-.4,1.8Z" transform="translate(-160.2 -360.2)" style="fill:#005aa7"/></svg>